<?xml version="1.0" encoding="UTF-8"?>
<<<<<<< HEAD
<svg height="128px" viewBox="0 0 128 128" width="128px" xmlns="http://www.w3.org/2000/svg">
    <path d="m 77.078125 65.433594 h 35.035156 c 6.304688 0 11.414063 5.109375 11.414063 11.414062 v 35.035156 c 0 6.304688 -5.109375 11.414063 -11.414063 11.414063 h -35.035156 c -6.304687 0 -11.414063 -5.109375 -11.414063 -11.414063 v -35.035156 c 0 -6.304687 5.109376 -11.414062 11.414063 -11.414062 z m 0 0" fill="#ffffff"/>
    <path d="m 100.734375 65.433594 l 22.792969 21.421875 v -10.007813 c 0 -6.324218 -5.089844 -11.414062 -11.414063 -11.414062 z m 0 0" fill="#f7d93c"/>
    <path d="m 72.734375 66.289062 l 50.613281 47.566407 c 0.109375 -0.644531 0.179688 -1.300781 0.179688 -1.972657 v -25.027343 l -22.792969 -21.421875 h -23.65625 c -1.539063 0 -3.003906 0.308594 -4.34375 0.855468 z m 0 0"/>
    <path d="m 65.664062 86.808594 l 38.824219 36.488281 h 7.625 c 5.648438 0 10.304688 -4.066406 11.234375 -9.441406 l -50.613281 -47.566407 c -4.15625 1.703126 -7.070313 5.777344 -7.070313 10.558594 z m 0 0" fill="#f7e85b"/>
    <path d="m 75.441406 123.167969 c 0.535156 0.078125 1.078125 0.128906 1.636719 0.128906 h 27.410156 l -38.824219 -36.488281 v 25.074218 c 0 0.792969 0.082032 1.566407 0.230469 2.3125 z m 0 0"/>
    <path d="m 75.441406 123.167969 l -9.546875 -8.972657 c 0.957031 4.683594 4.769531 8.289063 9.546875 8.972657 z m 0 0" fill="#f5c617"/>
    <path d="m 114.894531 90.953125 c 0 -7.363281 -3.308593 -14.78125 -16.539062 -14.78125 h -17.445313 l -0.320312 1.550781 l 0.855468 0.105469 c 2.1875 0.265625 3.09375 1.546875 3.09375 3.359375 c 0 0.535156 -0.105468 1.175781 -0.265624 1.816406 l -4.109376 22.671875 c -0.695312 3.683594 -1.761718 4.800781 -4.695312 5.175781 l -0.90625 0.105469 l -0.265625 1.546875 h 18.777344 c 17.445312 0 21.820312 -14.351562 21.820312 -21.550781 z m -5.707031 -0.640625 c 0 7.253906 -3.734375 20.113281 -18.621094 20.113281 c -3.785156 0 -5.332031 -0.535156 -5.332031 -2.617187 c 0 -0.371094 0 -0.746094 0.105469 -1.171875 l 4.480468 -24.648438 c 0.480469 -2.828125 2.132813 -3.628906 7.46875 -3.628906 c 7.46875 0 11.898438 4.484375 11.898438 11.953125 z m 0 0"/>
    <path d="m 83.253906 76.171875 l 6.511719 6.121094 l 0.054687 -0.304688 c 0.480469 -2.828125 2.132813 -3.628906 7.46875 -3.628906 c 7.46875 0 11.898438 4.484375 11.898438 11.953125 c 0 2.488281 -0.457031 5.632812 -1.636719 8.695312 l 4.042969 3.796876 c 2.445312 -4.113282 3.300781 -8.675782 3.300781 -11.851563 c 0 -7.363281 -3.304687 -14.78125 -16.535156 -14.78125 z m 0 0" fill="#f7d93c"/>
    <path d="m 93.007812 112.507812 l -2.226562 -2.09375 c -0.074219 0 -0.140625 0.007813 -0.214844 0.007813 c -3.785156 0 -5.332031 -0.53125 -5.332031 -2.613281 c 0 -0.371094 0 -0.746094 0.105469 -1.171875 l 0.207031 -1.144531 l -4.574219 -4.296876 l -0.808594 4.480469 c -0.695312 3.679688 -1.761718 4.800781 -4.695312 5.175781 l -0.90625 0.105469 l -0.265625 1.546875 z m 0 0" fill="#f7e85b"/>
    <path d="m 15.886719 4.730469 h 35.035156 c 6.304687 0 11.414063 5.109375 11.414063 11.414062 v 35.035157 c 0 6.300781 -5.109376 11.414062 -11.414063 11.414062 h -35.035156 c -6.304688 0 -11.414063 -5.113281 -11.414063 -11.414062 v -35.035157 c 0 -6.304687 5.109375 -11.414062 11.414063 -11.414062 z m 0 0" fill="#8ff0a4"/>
    <path d="m 60.027344 17.042969 l 0.265625 -1.546875 h -12.804688 l -0.265625 1.546875 l 0.746094 0.105469 c 2.242188 0.375 3.09375 1.066406 3.09375 2.292968 c 0 1.066406 -0.640625 2.5625 -1.652344 4.589844 l -10.457031 21.074219 l -3.203125 -22.835938 c -0.105469 -0.851562 -0.265625 -1.601562 -0.265625 -2.238281 c 0 -1.550781 0.585937 -2.5625 2.882813 -2.882812 l 0.851562 -0.105469 l 0.269531 -1.546875 h -13.660156 l -0.265625 1.546875 l 0.53125 0.105469 c 2.722656 0.855468 3.628906 2.292968 4.269531 6.882812 l -10.351562 21.074219 l -3.414063 -23.476563 c -0.105468 -0.53125 -0.105468 -1.011718 -0.105468 -1.4375 c 0 -1.710937 0.695312 -2.722656 3.042968 -3.042968 l 0.796875 -0.105469 l 0.269531 -1.546875 h -13.820312 l -0.265625 1.546875 l 0.480469 0.105469 c 2.988281 0.855468 3.414062 1.386718 4.160156 5.867187 l 4.75 28.8125 h 3.359375 l 11.898437 -23.582031 l 3.519532 23.582031 h 3.46875 l 15.207031 -29.558594 c 1.652344 -3.199219 3.359375 -4.746093 6.027344 -5.121093 z m 0 0"/>
    <path d="m 77.078125 4.730469 h 35.035156 c 6.304688 0 11.414063 5.109375 11.414063 11.414062 v 35.035157 c 0 6.300781 -5.109375 11.414062 -11.414063 11.414062 h -35.035156 c -6.304687 0 -11.414063 -5.113281 -11.414063 -11.414062 v -35.035157 c 0 -6.304687 5.109376 -11.414062 11.414063 -11.414062 z m 0 0" fill="#f9f06b"/>
    <path d="m 113.5625 30.167969 c 0 -9.070313 -6.296875 -15.367188 -15.3125 -15.367188 c -14.136719 0 -22.621094 11.578125 -22.621094 22.246094 c 0 9.175781 6.296875 15.472656 15.527344 15.472656 c 13.070312 0 22.40625 -10.828125 22.40625 -22.351562 z m -5.871094 -1.871094 c 0 9.660156 -5.441406 21.714844 -16.324218 21.714844 c -5.976563 0 -9.871094 -4.535157 -9.871094 -11.46875 c 0 -9.605469 5.921875 -21.234375 16.167968 -21.234375 c 5.972657 0 10.027344 4.429687 10.027344 10.988281 z m 0 0"/>
    <path d="m 15.886719 65.433594 h 35.035156 c 6.304687 0 11.414063 5.109375 11.414063 11.414062 v 35.035156 c 0 6.304688 -5.109376 11.414063 -11.414063 11.414063 h -35.035156 c -6.304688 0 -11.414063 -5.109375 -11.414063 -11.414063 v -35.035156 c 0 -6.304687 5.109375 -11.414062 11.414063 -11.414062 z m 0 0" fill="#f9f06b"/>
    <path d="m 42.921875 65.433594 l 19.414063 18.246094 v -6.832032 c 0 -6.324218 -5.089844 -11.414062 -11.414063 -11.414062 z m 0 0" fill="#f9f06b"/>
    <path d="m 14.171875 65.578125 l 48.164063 45.269531 v -27.167968 l -19.414063 -18.246094 h -27.035156 c -0.585938 0 -1.152344 0.058594 -1.714844 0.144531 z m 0 0"/>
    <path d="m 4.472656 83.628906 l 42.203125 39.667969 h 4.246094 c 6.324219 0 11.414063 -5.089844 11.414063 -11.414063 v -1.035156 l -48.164063 -45.269531 c -5.5 0.824219 -9.699219 5.53125 -9.699219 11.269531 z m 0 0" fill="#f7e757"/>
    <path d="m 17.769531 123.296875 l -13.296875 -12.496094 v 1.082031 c 0 6.324219 5.089844 11.414063 11.414063 11.414063 z m 0 0" fill="#f6cb21"/>
    <path d="m 4.472656 83.628906 v 27.171875 l 13.296875 12.496094 h 28.90625 z m 0 0"/>
    <path d="m 53.070312 113.359375 l 0.277344 -1.617187 c -3.457031 -1.003907 -4.128906 -1.503907 -5.914062 -4.742188 l -6.691406 -11.824219 c 10.988281 -1.5625 12.328124 -8.59375 12.328124 -11.550781 c 0 -6.300781 -5.023437 -8.253906 -12.105468 -8.253906 h -20.585938 l -0.335937 1.617187 l 0.894531 0.109375 c 2.230469 0.28125 3.234375 1.621094 3.234375 3.515625 c 0 0.558594 -0.113281 1.226563 -0.277344 1.898438 l -4.296875 23.707031 c -0.726562 3.851562 -1.839844 5.023438 -4.910156 5.414062 l -0.949219 0.109376 l -0.277343 1.617187 h 16.066406 l 0.277344 -1.617187 l -1.617188 -0.109376 c -2.507812 -0.222656 -3.234375 -1.453124 -3.234375 -3.292968 c 0.054687 -0.667969 0.054687 -1.339844 0.222656 -2.121094 l 2.007813 -11.042969 h 7.308594 l 9.429687 18.183594 z m -5.96875 -29.621094 c 0 7.585938 -5.96875 9.371094 -12.554687 9.371094 h -6.972656 l 2.121093 -11.601563 c 0.5 -2.957031 2.285157 -3.792968 7.921876 -3.792968 c 5.355468 0 9.484374 1.167968 9.484374 6.023437 z m 0 0"/>
    <path d="m 24.59375 75.371094 l 5.378906 5.058594 c 0.773438 -2.085938 2.765625 -2.714844 7.644532 -2.714844 c 5.355468 0 9.480468 1.171875 9.480468 6.023437 c 0 4.394531 -2.003906 6.832031 -4.96875 8.117188 l 2.554688 2.398437 c 7.371094 -2.476562 8.382812 -8.070312 8.382812 -10.628906 c 0 -6.300781 -5.019531 -8.253906 -12.101562 -8.253906 z m 0 0" fill="#f9f06b"/>
    <path d="m 25.660156 103.542969 l -4.765625 -4.480469 l -1.296875 7.15625 c -0.726562 3.851562 -1.84375 5.023438 -4.910156 5.414062 l -0.949219 0.109376 l -0.277343 1.621093 h 16.066406 l 0.28125 -1.621093 l -1.621094 -0.109376 c -2.511719 -0.226562 -3.234375 -1.453124 -3.234375 -3.292968 c 0.054687 -0.667969 0.054687 -1.339844 0.222656 -2.121094 z m 0 0" fill="#f7e757"/>
=======
<svg xmlns="http://www.w3.org/2000/svg" xmlns:xlink="http://www.w3.org/1999/xlink" width="128px" height="128px" viewBox="0 0 128 128" version="1.1">
<defs>
<filter id="alpha" filterUnits="objectBoundingBox" x="0%" y="0%" width="100%" height="100%">
  <feColorMatrix type="matrix" in="SourceGraphic" values="0 0 0 0 1 0 0 0 0 1 0 0 0 0 1 0 0 0 1 0"/>
</filter>
<mask id="mask0">
  <g filter="url(#alpha)">
<rect x="0" y="0" width="128" height="128" style="fill:rgb(0%,0%,0%);fill-opacity:0.1;stroke:none;"/>
  </g>
</mask>
<clipPath id="clip1">
  <rect x="0" y="0" width="192" height="152"/>
</clipPath>
<g id="surface10726" clip-path="url(#clip1)">
<path style="fill:none;stroke-width:0.99;stroke-linecap:butt;stroke-linejoin:miter;stroke:rgb(0%,0%,0%);stroke-opacity:1;stroke-dasharray:0.99,0.99;stroke-miterlimit:4;" d="M 123.503906 236 C 123.503906 268.863281 96.863281 295.503906 64 295.503906 C 31.136719 295.503906 4.496094 268.863281 4.496094 236 C 4.496094 203.136719 31.136719 176.496094 64 176.496094 C 96.863281 176.496094 123.503906 203.136719 123.503906 236 Z M 123.503906 236 " transform="matrix(1,0,0,1,8,-156)"/>
</g>
<mask id="mask1">
  <g filter="url(#alpha)">
<rect x="0" y="0" width="128" height="128" style="fill:rgb(0%,0%,0%);fill-opacity:0.1;stroke:none;"/>
  </g>
</mask>
<clipPath id="clip2">
  <rect x="0" y="0" width="192" height="152"/>
</clipPath>
<g id="surface10729" clip-path="url(#clip2)">
<path style="fill:none;stroke-width:0.99;stroke-linecap:butt;stroke-linejoin:miter;stroke:rgb(0%,0%,0%);stroke-opacity:1;stroke-dasharray:0.99,0.99;stroke-miterlimit:4;" d="M 29.195312 180.496094 L 98.804688 180.496094 C 103.609375 180.496094 107.503906 184.046875 107.503906 188.425781 L 107.503906 283.574219 C 107.503906 287.953125 103.609375 291.503906 98.804688 291.503906 L 29.195312 291.503906 C 24.390625 291.503906 20.496094 287.953125 20.496094 283.574219 L 20.496094 188.425781 C 20.496094 184.046875 24.390625 180.496094 29.195312 180.496094 Z M 29.195312 180.496094 " transform="matrix(1,0,0,1,8,-156)"/>
</g>
<mask id="mask2">
  <g filter="url(#alpha)">
<rect x="0" y="0" width="128" height="128" style="fill:rgb(0%,0%,0%);fill-opacity:0.1;stroke:none;"/>
  </g>
</mask>
<clipPath id="clip3">
  <rect x="0" y="0" width="192" height="152"/>
</clipPath>
<g id="surface10732" clip-path="url(#clip3)">
<path style="fill:none;stroke-width:0.99;stroke-linecap:butt;stroke-linejoin:miter;stroke:rgb(0%,0%,0%);stroke-opacity:1;stroke-dasharray:0.99,0.99;stroke-miterlimit:4;" d="M 20.417969 184.496094 L 107.582031 184.496094 C 111.957031 184.496094 115.503906 188.042969 115.503906 192.417969 L 115.503906 279.582031 C 115.503906 283.957031 111.957031 287.503906 107.582031 287.503906 L 20.417969 287.503906 C 16.042969 287.503906 12.496094 283.957031 12.496094 279.582031 L 12.496094 192.417969 C 12.496094 188.042969 16.042969 184.496094 20.417969 184.496094 Z M 20.417969 184.496094 " transform="matrix(1,0,0,1,8,-156)"/>
</g>
<mask id="mask3">
  <g filter="url(#alpha)">
<rect x="0" y="0" width="128" height="128" style="fill:rgb(0%,0%,0%);fill-opacity:0.1;stroke:none;"/>
  </g>
</mask>
<clipPath id="clip4">
  <rect x="0" y="0" width="192" height="152"/>
</clipPath>
<g id="surface10735" clip-path="url(#clip4)">
<path style="fill:none;stroke-width:0.99;stroke-linecap:butt;stroke-linejoin:miter;stroke:rgb(0%,0%,0%);stroke-opacity:1;stroke-dasharray:0.99,0.99;stroke-miterlimit:4;" d="M 16.425781 200.496094 L 111.574219 200.496094 C 115.953125 200.496094 119.503906 204.390625 119.503906 209.195312 L 119.503906 278.804688 C 119.503906 283.609375 115.953125 287.503906 111.574219 287.503906 L 16.425781 287.503906 C 12.046875 287.503906 8.496094 283.609375 8.496094 278.804688 L 8.496094 209.195312 C 8.496094 204.390625 12.046875 200.496094 16.425781 200.496094 Z M 16.425781 200.496094 " transform="matrix(1,0,0,1,8,-156)"/>
</g>
<mask id="mask5">
  <g filter="url(#alpha)">
<rect x="0" y="0" width="128" height="128" style="fill:rgb(0%,0%,0%);fill-opacity:0.1;stroke:none;"/>
  </g>
</mask>
<clipPath id="clip7">
  <rect x="0" y="0" width="192" height="152"/>
</clipPath>
<g id="surface10726" clip-path="url(#clip7)">
<path style="fill:none;stroke-width:0.99;stroke-linecap:butt;stroke-linejoin:miter;stroke:rgb(0%,0%,0%);stroke-opacity:1;stroke-dasharray:0.99,0.99;stroke-miterlimit:4;" d="M 123.503906 236 C 123.503906 268.863281 96.863281 295.503906 64 295.503906 C 31.136719 295.503906 4.496094 268.863281 4.496094 236 C 4.496094 203.136719 31.136719 176.496094 64 176.496094 C 96.863281 176.496094 123.503906 203.136719 123.503906 236 Z M 123.503906 236 " transform="matrix(1,0,0,1,8,-156)"/>
</g>
<mask id="mask6">
  <g filter="url(#alpha)">
<rect x="0" y="0" width="128" height="128" style="fill:rgb(0%,0%,0%);fill-opacity:0.1;stroke:none;"/>
  </g>
</mask>
<clipPath id="clip8">
  <rect x="0" y="0" width="192" height="152"/>
</clipPath>
<g id="surface10729" clip-path="url(#clip8)">
<path style="fill:none;stroke-width:0.99;stroke-linecap:butt;stroke-linejoin:miter;stroke:rgb(0%,0%,0%);stroke-opacity:1;stroke-dasharray:0.99,0.99;stroke-miterlimit:4;" d="M 29.195312 180.496094 L 98.804688 180.496094 C 103.609375 180.496094 107.503906 184.046875 107.503906 188.425781 L 107.503906 283.574219 C 107.503906 287.953125 103.609375 291.503906 98.804688 291.503906 L 29.195312 291.503906 C 24.390625 291.503906 20.496094 287.953125 20.496094 283.574219 L 20.496094 188.425781 C 20.496094 184.046875 24.390625 180.496094 29.195312 180.496094 Z M 29.195312 180.496094 " transform="matrix(1,0,0,1,8,-156)"/>
</g>
<mask id="mask7">
  <g filter="url(#alpha)">
<rect x="0" y="0" width="128" height="128" style="fill:rgb(0%,0%,0%);fill-opacity:0.1;stroke:none;"/>
  </g>
</mask>
<clipPath id="clip9">
  <rect x="0" y="0" width="192" height="152"/>
</clipPath>
<g id="surface10732" clip-path="url(#clip9)">
<path style="fill:none;stroke-width:0.99;stroke-linecap:butt;stroke-linejoin:miter;stroke:rgb(0%,0%,0%);stroke-opacity:1;stroke-dasharray:0.99,0.99;stroke-miterlimit:4;" d="M 20.417969 184.496094 L 107.582031 184.496094 C 111.957031 184.496094 115.503906 188.042969 115.503906 192.417969 L 115.503906 279.582031 C 115.503906 283.957031 111.957031 287.503906 107.582031 287.503906 L 20.417969 287.503906 C 16.042969 287.503906 12.496094 283.957031 12.496094 279.582031 L 12.496094 192.417969 C 12.496094 188.042969 16.042969 184.496094 20.417969 184.496094 Z M 20.417969 184.496094 " transform="matrix(1,0,0,1,8,-156)"/>
</g>
<mask id="mask8">
  <g filter="url(#alpha)">
<rect x="0" y="0" width="128" height="128" style="fill:rgb(0%,0%,0%);fill-opacity:0.1;stroke:none;"/>
  </g>
</mask>
<clipPath id="clip10">
  <rect x="0" y="0" width="192" height="152"/>
</clipPath>
<g id="surface10735" clip-path="url(#clip10)">
<path style="fill:none;stroke-width:0.99;stroke-linecap:butt;stroke-linejoin:miter;stroke:rgb(0%,0%,0%);stroke-opacity:1;stroke-dasharray:0.99,0.99;stroke-miterlimit:4;" d="M 16.425781 200.496094 L 111.574219 200.496094 C 115.953125 200.496094 119.503906 204.390625 119.503906 209.195312 L 119.503906 278.804688 C 119.503906 283.609375 115.953125 287.503906 111.574219 287.503906 L 16.425781 287.503906 C 12.046875 287.503906 8.496094 283.609375 8.496094 278.804688 L 8.496094 209.195312 C 8.496094 204.390625 12.046875 200.496094 16.425781 200.496094 Z M 16.425781 200.496094 " transform="matrix(1,0,0,1,8,-156)"/>
</g>
<clipPath id="clip6">
  <rect x="0" y="0" width="128" height="128"/>
</clipPath>
<g id="surface10750" clip-path="url(#clip6)">
<rect x="0" y="0" width="128" height="128" style="fill:rgb(94.117647%,94.117647%,94.117647%);fill-opacity:1;stroke:none;"/>
<use xlink:href="#surface10726" transform="matrix(1,0,0,1,-8,-16)" mask="url(#mask5)"/>
<use xlink:href="#surface10729" transform="matrix(1,0,0,1,-8,-16)" mask="url(#mask6)"/>
<use xlink:href="#surface10732" transform="matrix(1,0,0,1,-8,-16)" mask="url(#mask7)"/>
<use xlink:href="#surface10735" transform="matrix(1,0,0,1,-8,-16)" mask="url(#mask8)"/>
<path style="fill:none;stroke-width:2;stroke-linecap:butt;stroke-linejoin:miter;stroke:rgb(38.431373%,62.7451%,91.764706%);stroke-opacity:1;stroke-miterlimit:4;" d="M 0 289 L 128 289 " transform="matrix(1,0,0,1,0,-172)"/>
</g>
<clipPath id="clip5">
  <rect x="0" y="0" width="128" height="128"/>
</clipPath>
<g id="surface10753" clip-path="url(#clip5)" filter="url(#alpha)">
<use xlink:href="#surface10750"/>
</g>
<mask id="mask4">
<use xlink:href="#surface10753"/>
</mask>
<mask id="mask9">
  <g filter="url(#alpha)">
<rect x="0" y="0" width="128" height="128" style="fill:rgb(0%,0%,0%);fill-opacity:0.8;stroke:none;"/>
  </g>
</mask>
<linearGradient id="linear0" gradientUnits="userSpaceOnUse" x1="300" y1="235" x2="428" y2="235" gradientTransform="matrix(0.000000000000000023,0.37,-0.98462,0.00000000000000006,295.38501,-30.360001)">
<stop offset="0" style="stop-color:rgb(97.647059%,94.117647%,41.960785%);stop-opacity:1;"/>
<stop offset="1" style="stop-color:rgb(96.078432%,76.078433%,6.666667%);stop-opacity:1;"/>
</linearGradient>
<clipPath id="clip12">
  <rect x="0" y="0" width="128" height="128"/>
</clipPath>
<g id="surface10747" clip-path="url(#clip12)">
<path style=" stroke:none;fill-rule:nonzero;fill:url(#linear0);" d="M 128 80.640625 L 128 128 L 0 128 L 0 80.640625 Z M 128 80.640625 "/>
<path style=" stroke:none;fill-rule:nonzero;fill:rgb(0%,0%,0%);fill-opacity:1;" d="M 13.308594 80.640625 L 60.664062 128 L 81.878906 128 L 34.519531 80.640625 Z M 55.730469 80.640625 L 103.09375 128 L 124.308594 128 L 76.945312 80.640625 Z M 98.160156 80.640625 L 128 110.480469 L 128 89.269531 L 119.371094 80.640625 Z M 0 88.546875 L 0 109.761719 L 18.238281 128 L 39.453125 128 Z M 0 88.546875 "/>
</g>
<clipPath id="clip11">
  <rect x="0" y="0" width="128" height="128"/>
</clipPath>
<g id="surface10752" clip-path="url(#clip11)">
<use xlink:href="#surface10747" mask="url(#mask9)"/>
</g>
</defs>
<g id="surface10672">
<rect x="0" y="0" width="128" height="128" style="fill:rgb(94.117647%,94.117647%,94.117647%);fill-opacity:1;stroke:none;"/>
<use xlink:href="#surface10726" transform="matrix(1,0,0,1,-8,-16)" mask="url(#mask0)"/>
<use xlink:href="#surface10729" transform="matrix(1,0,0,1,-8,-16)" mask="url(#mask1)"/>
<use xlink:href="#surface10732" transform="matrix(1,0,0,1,-8,-16)" mask="url(#mask2)"/>
<use xlink:href="#surface10735" transform="matrix(1,0,0,1,-8,-16)" mask="url(#mask3)"/>
<path style="fill:none;stroke-width:2;stroke-linecap:butt;stroke-linejoin:miter;stroke:rgb(38.431373%,62.7451%,91.764706%);stroke-opacity:1;stroke-miterlimit:4;" d="M 0 289 L 128 289 " transform="matrix(1,0,0,1,0,-172)"/>
<use xlink:href="#surface10752" mask="url(#mask4)"/>
</g>
>>>>>>> e7ec6ed (change app id)
</svg>
